<svg xmlns="http://www.w3.org/2000/svg" version="1.1" xmlns:xlink="http://www.w3.org/1999/xlink" xmlns:svgjs="http://svgjs.dev/svgjs" width="1000" height="179" viewBox="0 0 1000 179"><g transform="matrix(1,0,0,1,-0.6060606060606233,0.15602948489268442)"><svg viewBox="0 0 396 71" data-background-color="#f9f9f9" preserveAspectRatio="xMidYMid meet" height="179" width="1000" xmlns="http://www.w3.org/2000/svg" xmlns:xlink="http://www.w3.org/1999/xlink"><defs></defs><g id="tight-bounds" transform="matrix(1,0,0,1,0.2400000000000091,-0.061887267989504835)"><svg viewBox="0 0 395.52 71.12377301387139" height="71.12377301387139" width="395.52"><g><svg viewBox="0 0 395.52 71.12377301387139" height="71.12377301387139" width="395.52"><g><svg viewBox="0 0 395.52 71.12377301387139" height="71.12377301387139" width="395.52"><g><svg viewBox="0 0 395.52 71.12377301387139" height="71.12377301387139" width="395.52"><g><svg viewBox="0 0 395.52 71.12377301387139" height="71.12377301387139" width="395.52"><g transform="matrix(1,0,0,1,0,0)"><svg width="395.52" viewBox="2.75 -35.04999923706055 198.24000549316406 35.64999771118164" height="71.12377301387139" data-palette-color="#030303"><path d="M17.05-35.05Q20.15-35.05 22.28-34.25 24.4-33.45 26.6-31.65L26.6-31.65 24-28.6Q20.85-31.15 17.35-31.15L17.35-31.15Q13.05-31.15 10.43-27.85 7.8-24.55 7.8-17.25L7.8-17.25Q7.8-10.15 10.4-6.78 13-3.4 17.3-3.4L17.3-3.4Q19.5-3.4 21.15-4.15 22.8-4.9 24.65-6.25L24.65-6.25 27-3.25Q25.4-1.6 22.9-0.5 20.4 0.6 17.15 0.6L17.15 0.6Q12.95 0.6 9.68-1.48 6.4-3.55 4.58-7.58 2.75-11.6 2.75-17.25L2.75-17.25Q2.75-22.9 4.65-26.93 6.55-30.95 9.8-33 13.05-35.05 17.05-35.05L17.05-35.05ZM57 0L52.25 0 52.25-16.15 37.75-16.15 37.75 0 33 0 33-34.45 37.75-34.45 37.75-20.05 52.25-20.05 52.25-34.45 57-34.45 57 0ZM67-34.45L71.75-34.45 71.75 0 67 0 67-34.45ZM109.69-34.45L112.54 0 107.94 0 106.74-15.55Q105.99-24.7 105.89-29.6L105.89-29.6 98.44-3.9 93.99-3.9 86.14-29.65Q86.14-23.4 85.49-15.2L85.49-15.2 84.34 0 79.84 0 82.69-34.45 89.09-34.45 96.34-9.4 103.24-34.45 109.69-34.45ZM120.64-34.45L139.29-34.45 138.74-30.65 125.39-30.65 125.39-19.4 136.99-19.4 136.99-15.6 125.39-15.6 125.39-3.8 139.69-3.8 139.69 0 120.64 0 120.64-34.45ZM165.74 0L157.49-14.6 152.14-14.6 152.14 0 147.39 0 147.39-34.45 156.44-34.45Q162.89-34.45 166.21-32 169.54-29.55 169.54-24.7L169.54-24.7Q169.54-21.1 167.69-18.85 165.84-16.6 162.09-15.45L162.09-15.45 171.39 0 165.74 0ZM152.14-18.25L156.94-18.25Q160.69-18.25 162.59-19.78 164.49-21.3 164.49-24.7L164.49-24.7Q164.49-27.9 162.56-29.33 160.64-30.75 156.39-30.75L156.39-30.75 152.14-30.75 152.14-18.25ZM200.99 0L195.99 0 193.39-8.65 180.34-8.65 177.74 0 172.94 0 183.99-34.45 189.99-34.45 200.99 0ZM186.89-30.5L181.49-12.5 192.24-12.5 186.89-30.5Z" opacity="1" transform="matrix(1,0,0,1,0,0)" fill="#030303" class="undefined-text-0" data-fill-palette-color="primary" id="text-0"></path></svg></g></svg></g></svg></g></svg></g></svg></g></svg><rect width="395.52" height="71.12377301387139" fill="none" stroke="none" visibility="hidden"></rect></g></svg></g></svg>