<svg xmlns="http://www.w3.org/2000/svg" version="1.1" xmlns:xlink="http://www.w3.org/1999/xlink" xmlns:svgjs="http://svgjs.dev/svgjs" width="1000" height="164" viewBox="0 0 1000 164"><g transform="matrix(1,0,0,1,-0.6060454030829874,-0.32876874329674877)"><svg viewBox="0 0 396 65" data-background-color="#000000" preserveAspectRatio="xMidYMid meet" height="164" width="1000" xmlns="http://www.w3.org/2000/svg" xmlns:xlink="http://www.w3.org/1999/xlink"><defs></defs><g id="tight-bounds" transform="matrix(1,0,0,1,0.23999397962086277,0.13030468484322455)"><svg viewBox="0 0 395.52 64.73938789390161" height="64.73938789390161" width="395.52"><g><svg viewBox="0 0 395.52 64.73938789390161" height="64.73938789390161" width="395.52"><g><svg viewBox="0 0 395.52 64.73938789390161" height="64.73938789390161" width="395.52"><g><svg viewBox="0 0 395.52 64.73938789390161" height="64.73938789390161" width="395.52"><g><svg viewBox="0 0 395.52 64.73938789390161" height="64.73938789390161" width="395.52"><g transform="matrix(1,0,0,1,0,0)"><svg width="395.52" viewBox="2.75 -35.5 220.5399932861328 36.099998474121094" height="64.73938789390161" data-palette-color="#fffafa"><path d="M17.4 0.6L17.4 0.6Q10.55 0.6 6.65-4.03 2.75-8.65 2.75-17.45L2.75-17.45Q2.75-21.85 3.75-25.2 4.75-28.55 6.65-30.85 8.55-33.15 11.28-34.33 14-35.5 17.4-35.5L17.4-35.5Q21.95-35.5 25.03-33.5 28.1-31.5 29.85-27.6L29.85-27.6 25.1-25Q24.2-27.5 22.33-28.98 20.45-30.45 17.4-30.45L17.4-30.45Q13.35-30.45 11.05-27.7 8.75-24.95 8.75-20.1L8.75-20.1 8.75-14.8Q8.75-9.95 11.05-7.2 13.35-4.45 17.4-4.45L17.4-4.45Q20.55-4.45 22.53-6.08 24.5-7.7 25.45-10.25L25.45-10.25 30-7.5Q28.25-3.7 25.1-1.55 21.95 0.6 17.4 0.6ZM57.45 0L57.45-15.2 41.65-15.2 41.65 0 36 0 36-34.9 41.65-34.9 41.65-20.2 57.45-20.2 57.45-34.9 63.1-34.9 63.1 0 57.45 0ZM85.4 0L70.2 0 70.2-4.6 74.95-4.6 74.95-30.3 70.2-30.3 70.2-34.9 85.4-34.9 85.4-30.3 80.6-30.3 80.6-4.6 85.4-4.6 85.4 0ZM119.19 0L119.19-26.7 118.94-26.7 116.19-21.05 108.54-7.1 100.89-21.05 98.14-26.7 97.89-26.7 97.89 0 92.49 0 92.49-34.9 99.19-34.9 108.54-17.15 108.84-17.15 118.19-34.9 124.59-34.9 124.59 0 119.19 0ZM155.54 0L133.19 0 133.19-34.9 155.54-34.9 155.54-29.9 138.84-29.9 138.84-20.2 153.99-20.2 153.99-15.2 138.84-15.2 138.84-5 155.54-5 155.54 0ZM168.49-14.1L168.49 0 162.84 0 162.84-34.9 177.89-34.9Q182.59-34.9 185.29-32.08 187.99-29.25 187.99-24.4L187.99-24.4Q187.99-20.65 186.26-18.18 184.54-15.7 181.19-14.7L181.19-14.7 188.74 0 182.44 0 175.44-14.1 168.49-14.1ZM168.49-18.85L177.49-18.85Q179.64-18.85 180.84-19.98 182.04-21.1 182.04-23.2L182.04-23.2 182.04-25.6Q182.04-27.7 180.84-28.83 179.64-29.95 177.49-29.95L177.49-29.95 168.49-29.95 168.49-18.85ZM223.29 0L217.39 0 214.24-9.45 201.19-9.45 198.14 0 192.39 0 204.29-34.9 211.39-34.9 223.29 0ZM212.84-14.3L207.84-29.7 207.59-29.7 202.54-14.3 212.84-14.3Z" opacity="1" transform="matrix(1,0,0,1,0,0)" fill="#fffafa" class="undefined-text-0" data-fill-palette-color="primary" id="text-0"></path></svg></g></svg></g></svg></g></svg></g><g></g></svg></g></svg><rect width="395.52" height="64.73938789390161" fill="none" stroke="none" visibility="hidden"></rect></g></svg></g></svg>